<svg id="Layer_1" data-name="Layer 1" xmlns="http://www.w3.org/2000/svg" viewBox="0 0 52.88 35.91"><defs><style>.cls-1{fill:#481ae7;}</style></defs><title>software</title><g id="software"><path id="Fill_1" data-name="Fill 1" class="cls-1" d="M3.71,30.41H49.45V2.59A1.59,1.59,0,0,0,47.87,1H5.29A1.59,1.59,0,0,0,3.71,2.59Zm46.25,1H3.2a.51.51,0,0,1-.5-.5V2.59A2.59,2.59,0,0,1,5.29,0H47.87a2.6,2.6,0,0,1,2.59,2.59V30.91A.51.51,0,0,1,50,31.41Z" transform="translate(0 0)"/><path id="Fill_3" data-name="Fill 3" class="cls-1" d="M7.77,4.49a.37.37,0,0,0-.36.37v21.6a.36.36,0,0,0,.36.36h3.81a.36.36,0,0,0,.37-.36V4.86a.37.37,0,0,0-.37-.37Zm3.81,23.34H7.77a1.37,1.37,0,0,1-1.36-1.37V4.86A1.37,1.37,0,0,1,7.77,3.49h3.81A1.37,1.37,0,0,1,13,4.86v21.6A1.37,1.37,0,0,1,11.58,27.83Z" transform="translate(0 0)"/><path id="Fill_5" data-name="Fill 5" class="cls-1" d="M41.38,4.53a.16.16,0,0,0-.16.16V8.83a.16.16,0,0,0,.16.16h4.38a.16.16,0,0,0,.16-.16V4.69a.16.16,0,0,0-.16-.16ZM45.76,10H41.38a1.16,1.16,0,0,1-1.16-1.16V4.69a1.16,1.16,0,0,1,1.16-1.17h4.38a1.16,1.16,0,0,1,1.16,1.17V8.83A1.16,1.16,0,0,1,45.76,10Z" transform="translate(0 0)"/><path id="Fill_7" data-name="Fill 7" class="cls-1" d="M41.38,13.47a.16.16,0,0,0-.16.16v4.15a.16.16,0,0,0,.16.16h4.38a.16.16,0,0,0,.16-.16V13.63a.16.16,0,0,0-.16-.16Zm4.38,5.47H41.38a1.16,1.16,0,0,1-1.16-1.16V13.63a1.16,1.16,0,0,1,1.16-1.16h4.38a1.16,1.16,0,0,1,1.16,1.16v4.15A1.16,1.16,0,0,1,45.76,18.94Z" transform="translate(0 0)"/><path id="Fill_9" data-name="Fill 9" class="cls-1" d="M41.38,22.71a.16.16,0,0,0-.16.16V27a.16.16,0,0,0,.16.16h4.38a.16.16,0,0,0,.16-.16V22.87a.16.16,0,0,0-.16-.16Zm4.38,5.46H41.38A1.16,1.16,0,0,1,40.22,27V22.87a1.16,1.16,0,0,1,1.16-1.17h4.38a1.16,1.16,0,0,1,1.16,1.17V27A1.16,1.16,0,0,1,45.76,28.17Z" transform="translate(0 0)"/><path id="Fill_11" data-name="Fill 11" class="cls-1" d="M6.21,34.91H48.05l3.2-3.5H1.91Zm42.06,1H6a.52.52,0,0,1-.32-.11L.18,31.3A.52.52,0,0,1,0,30.74a.5.5,0,0,1,.47-.33H52.38a.5.5,0,0,1,.37.84l-4.11,4.5A.51.51,0,0,1,48.27,35.91Z" transform="translate(0 0)"/><path id="Fill_14" data-name="Fill 14" class="cls-1" d="M23,35.91a.5.5,0,0,1-.48-.34l-1.55-4.5a.5.5,0,1,1,.95-.33l1.55,4.51a.5.5,0,0,1-.31.63Z" transform="translate(0 0)"/><path id="Fill_16" data-name="Fill 16" class="cls-1" d="M30.1,35.91a.41.41,0,0,1-.19,0,.5.5,0,0,1-.28-.65l1.84-4.5a.5.5,0,0,1,.65-.28.51.51,0,0,1,.28.66l-1.84,4.5A.51.51,0,0,1,30.1,35.91Z" transform="translate(0 0)"/><path id="Fill_18" data-name="Fill 18" class="cls-1" d="M22.73,12.47h7.18l3.71-3.14L30.35,6.49H22.47l-3.15,3Zm7.37,1H22.54a.5.5,0,0,1-.33-.12l-4-3.43a.49.49,0,0,1,0-.74l3.69-3.56a.55.55,0,0,1,.35-.14h8.27a.53.53,0,0,1,.33.13L34.71,9a.49.49,0,0,1,.18.38.53.53,0,0,1-.18.38l-4.29,3.63A.47.47,0,0,1,30.1,13.47Z" transform="translate(0 0)"/><path id="Fill_20" data-name="Fill 20" class="cls-1" d="M22.74,25.19h7.17l3.71-3.13-3.27-2.85h-7.9l-3.18,2.61Zm7.36,1H22.54a.5.5,0,0,1-.35-.14l-4-3.91a.54.54,0,0,1-.15-.38.53.53,0,0,1,.18-.37L22,18.32a.52.52,0,0,1,.32-.11h8.27a.52.52,0,0,1,.33.12l3.84,3.35a.53.53,0,0,1,.18.38.49.49,0,0,1-.18.38l-4.29,3.64A.47.47,0,0,1,30.1,26.2Z" transform="translate(0 0)"/><path id="Fill_22" data-name="Fill 22" class="cls-1" d="M34.39,22.56a.5.5,0,0,1-.51-.5V9.34a.51.51,0,1,1,1,0V22.06A.5.5,0,0,1,34.39,22.56Z" transform="translate(0 0)"/><path id="Fill_24" data-name="Fill 24" class="cls-1" d="M30.1,26.2a.5.5,0,0,1-.5-.5V13a.5.5,0,0,1,.5-.5.5.5,0,0,1,.5.5V25.7A.51.51,0,0,1,30.1,26.2Z" transform="translate(0 0)"/><path id="Fill_26" data-name="Fill 26" class="cls-1" d="M22.54,26.2a.5.5,0,0,1-.5-.5V13a.5.5,0,1,1,1,0V25.7A.5.5,0,0,1,22.54,26.2Z" transform="translate(0 0)"/><path id="Fill_28" data-name="Fill 28" class="cls-1" d="M18.57,22.29a.5.5,0,0,1-.5-.5V9.54a.51.51,0,0,1,.5-.5.5.5,0,0,1,.5.5V21.79A.5.5,0,0,1,18.57,22.29Z" transform="translate(0 0)"/></g></svg>