<svg id="Layer_1" data-name="Layer 1" xmlns="http://www.w3.org/2000/svg" xmlns:xlink="http://www.w3.org/1999/xlink" viewBox="0 0 36.98 42.79"><defs><style>.cls-1{fill:#fff;}.cls-2{mask:url(#mask);}</style><mask id="mask" x="13.12" y="39.64" width="11.45" height="3.15" maskUnits="userSpaceOnUse"><g id="mask0"><path id="Clip_8" data-name="Clip 8" class="cls-1" d="M13.12,39.64H24.57v3.15H13.12Z"/></g></mask></defs><title>emprendimientob</title><g id="emprendimiento"><path id="Fill_1" data-name="Fill 1" class="cls-1" d="M20.37,32.23h1.05l-.19-10a.37.37,0,0,1,.37-.39.39.39,0,0,1,.41.35l.37,4h.83c0-1,.14-4,.14-6.25a4,4,0,0,0-2.14-3.47l-2.12,2a.39.39,0,0,1-.55,0l-2.42-2.3a4.4,4.4,0,0,0-1.84,3.73c0,.38,0,4.87,0,6.25h1l.28-4a.38.38,0,0,1,.4-.36.39.39,0,0,1,.38.39l-.15,10h1l1.22-4.59a.39.39,0,0,1,.38-.29h0a.41.41,0,0,1,.38.29Zm1.45.78H20.07a.4.4,0,0,1-.38-.29l-.92-3.46-.92,3.46a.39.39,0,0,1-.38.29H15.78a.39.39,0,0,1-.39-.4l.08-5.67H13.91a.39.39,0,0,1-.39-.38c0-.06,0-6.2,0-6.63A5.11,5.11,0,0,1,16,15.36a.39.39,0,0,1,.47.05l2.37,2.26,2.06-2a.4.4,0,0,1,.43-.08,4.91,4.91,0,0,1,2.84,4.3c0,2.77-.16,6.61-.16,6.65a.4.4,0,0,1-.4.37H22.1l.11,5.67a.33.33,0,0,1-.11.28A.36.36,0,0,1,21.82,33Z"/><path id="Fill_3" data-name="Fill 3" class="cls-1" d="M18.81,9.1a2.56,2.56,0,1,0,2.59,2.56A2.58,2.58,0,0,0,18.81,9.1Zm0,5.9a3.34,3.34,0,1,1,3.37-3.34A3.36,3.36,0,0,1,18.81,15Z"/><path id="Fill_5" data-name="Fill 5" class="cls-1" d="M18.94,6a13.45,13.45,0,0,0-6.85,25.11.37.37,0,0,1,.19.33v6.41a.48.48,0,0,0,.48.48H25a.47.47,0,0,0,.48-.48V31.54a.4.4,0,0,1,.2-.34A13.45,13.45,0,0,0,18.94,6ZM25,39.14H12.76a1.27,1.27,0,0,1-1.27-1.26V31.69A14.29,14.29,0,1,1,33.32,19.5a14.27,14.27,0,0,1-7,12.26v6.12A1.27,1.27,0,0,1,25,39.14Z"/><g id="Group_9" data-name="Group 9"><g class="cls-2"><path id="Fill_7" data-name="Fill 7" class="cls-1" d="M13.91,40.42A1.74,1.74,0,0,0,15.65,42H22a1.74,1.74,0,0,0,1.74-1.59ZM22,42.79H15.65a2.53,2.53,0,0,1-2.53-2.51V40a.4.4,0,0,1,.39-.39H24.18a.4.4,0,0,1,.39.39v.25A2.53,2.53,0,0,1,22,42.79Z"/></g></g><path id="Fill_10" data-name="Fill 10" class="cls-1" d="M28.47,35.49h-19a.39.39,0,0,1-.39-.39.4.4,0,0,1,.39-.39h19a.4.4,0,0,1,.39.39A.39.39,0,0,1,28.47,35.49Z"/><path id="Fill_12" data-name="Fill 12" class="cls-1" d="M35.42,29.08a.43.43,0,0,1-.19,0L32.58,27.6a.38.38,0,0,1-.15-.53.4.4,0,0,1,.53-.15l2.65,1.43a.4.4,0,0,1,.16.53A.41.41,0,0,1,35.42,29.08Z"/><path id="Fill_14" data-name="Fill 14" class="cls-1" d="M36.59,19.67H33.53a.38.38,0,0,1-.39-.39.39.39,0,0,1,.39-.39h3.06a.4.4,0,0,1,.39.39A.39.39,0,0,1,36.59,19.67Z"/><path id="Fill_16" data-name="Fill 16" class="cls-1" d="M32.19,12.11a.4.4,0,0,1-.34-.19.39.39,0,0,1,.14-.53l3.24-1.86a.39.39,0,0,1,.53.14.38.38,0,0,1-.14.53l-3.23,1.86A.35.35,0,0,1,32.19,12.11Z"/><path id="Fill_18" data-name="Fill 18" class="cls-1" d="M26.57,6.48a.41.41,0,0,1-.19-.05.38.38,0,0,1-.15-.53L28,2.7a.39.39,0,1,1,.68.38l-1.81,3.2A.38.38,0,0,1,26.57,6.48Z"/><path id="Fill_20" data-name="Fill 20" class="cls-1" d="M2.64,29.08a.39.39,0,0,1-.19-.73L5.1,26.92a.4.4,0,0,1,.53.15.39.39,0,0,1-.16.53L2.82,29A.39.39,0,0,1,2.64,29.08Z"/><path id="Fill_22" data-name="Fill 22" class="cls-1" d="M3.45,19.67H.39A.39.39,0,0,1,0,19.28a.4.4,0,0,1,.39-.39H3.45a.39.39,0,0,1,.39.39A.38.38,0,0,1,3.45,19.67Z"/><path id="Fill_24" data-name="Fill 24" class="cls-1" d="M5.87,12.11a.35.35,0,0,1-.2,0L2.44,10.2a.38.38,0,0,1-.14-.53.39.39,0,0,1,.53-.14l3.23,1.86a.38.38,0,0,1,.15.53A.42.42,0,0,1,5.87,12.11Z"/><path id="Fill_26" data-name="Fill 26" class="cls-1" d="M11.49,6.48a.38.38,0,0,1-.34-.2L9.34,3.08A.39.39,0,1,1,10,2.7l1.81,3.2a.38.38,0,0,1-.15.53A.45.45,0,0,1,11.49,6.48Z"/><path id="Fill_28" data-name="Fill 28" class="cls-1" d="M18.94,4.43A.4.4,0,0,1,18.55,4V.39a.4.4,0,0,1,.79,0V4A.4.4,0,0,1,18.94,4.43Z"/></g></svg>