<svg id="Layer_1" data-name="Layer 1" xmlns="http://www.w3.org/2000/svg" xmlns:xlink="http://www.w3.org/1999/xlink" viewBox="0 0 46.95 42.96"><defs><style>.cls-1{fill:#fff;}.cls-2{mask:url(#mask);}</style><mask id="mask" x="0" y="0" width="46.95" height="42.96" maskUnits="userSpaceOnUse"><g transform="translate(0 0)"><g id="mask0"><path id="Clip_2" data-name="Clip 2" class="cls-1" d="M0,0H47V43H0Z"/></g></g></mask></defs><title>estrategiab</title><g id="estrategia"><g class="cls-2"><path id="Fill_1" data-name="Fill 1" class="cls-1" d="M14.24,35.05H32.73V29.17H14.24Zm18.91.84H13.82a.42.42,0,0,1-.42-.42V28.75a.42.42,0,0,1,.42-.42H33.15a.42.42,0,0,1,.42.42v6.72A.42.42,0,0,1,33.15,35.89Z" transform="translate(0 0)"/><path id="Fill_3" data-name="Fill 3" class="cls-1" d="M18.41,13.7H28.59V11.56H18.41Zm10.6.84H18a.42.42,0,0,1-.42-.42v-3a.42.42,0,0,1,.42-.42H29a.42.42,0,0,1,.42.42v3A.42.42,0,0,1,29,14.54Z" transform="translate(0 0)"/><path id="Fill_4" data-name="Fill 4" class="cls-1" d="M6.7,35.05H40.41V13.19h-11v.93a.42.42,0,0,1-.42.42H18a.42.42,0,0,1-.42-.42v-.93H6.7Zm34.13.84H6.28a.42.42,0,0,1-.42-.42V12.76a.42.42,0,0,1,.42-.42H18a.42.42,0,0,1,.42.42v.94H28.59v-.94a.42.42,0,0,1,.42-.42H40.83a.42.42,0,0,1,.42.42V35.47A.42.42,0,0,1,40.83,35.89Z" transform="translate(0 0)"/><path id="Fill_5" data-name="Fill 5" class="cls-1" d="M17.09,28.33H29.86V26.76a23.79,23.79,0,0,1-2.6-12.22H19.82a19.35,19.35,0,0,1-1.05,7.82,39.2,39.2,0,0,1-1.68,4.54Zm13.19.84H16.67a.42.42,0,0,1-.42-.42V26.81a.58.58,0,0,1,0-.18A40.59,40.59,0,0,0,18,22.1c1-3.31,1.32-6,.94-7.89a.42.42,0,0,1,.08-.36.41.41,0,0,1,.33-.15h8.4a.41.41,0,0,1,.31.14.44.44,0,0,1,.11.33,23.18,23.18,0,0,0,2.51,12.27.54.54,0,0,1,.05.21v2.1A.42.42,0,0,1,30.28,29.17Z" transform="translate(0 0)"/><path id="Fill_6" data-name="Fill 6" class="cls-1" d="M2,39.27A1.11,1.11,0,0,0,.84,40.38V41A1.11,1.11,0,0,0,2,42.11H44.82a1.29,1.29,0,0,0,1.29-1.29v-.26a1.29,1.29,0,0,0-1.29-1.29H29.38L27.62,41a.45.45,0,0,1-.3.12H19.61A.44.44,0,0,1,19.3,41l-1.69-1.76ZM44.82,43H2A2,2,0,0,1,0,41v-.62a2,2,0,0,1,2-2H17.79a.4.4,0,0,1,.3.13l1.7,1.76h7.36l1.75-1.77a.42.42,0,0,1,.3-.12H44.82A2.14,2.14,0,0,1,47,40.56v.26A2.14,2.14,0,0,1,44.82,43Z" transform="translate(0 0)"/><path id="Fill_7" data-name="Fill 7" class="cls-1" d="M30.32,32.24H16.71a.43.43,0,0,1,0-.85H30.32a.43.43,0,0,1,0,.85Z" transform="translate(0 0)"/><path id="Fill_8" data-name="Fill 8" class="cls-1" d="M19.79,40.31h7.36l1.75-1.77a.42.42,0,0,1,.3-.12H43.46V13a2.71,2.71,0,0,0-2.71-2.72H28.28A6,6,0,0,1,27,11.49a.39.39,0,0,1-.23.07H20.22a.4.4,0,0,1-.24-.07,6.26,6.26,0,0,1-1.29-1.18H6.07A2.71,2.71,0,0,0,3.37,13V38.42H17.79a.44.44,0,0,1,.31.13Zm7.53.85H19.61A.44.44,0,0,1,19.3,41l-1.69-1.76H3a.43.43,0,0,1-.43-.43V13A3.57,3.57,0,0,1,6.07,9.47H18.89a.42.42,0,0,1,.33.16,5.56,5.56,0,0,0,1.13,1.09h6.27a5.56,5.56,0,0,0,1.13-1.09.42.42,0,0,1,.33-.16H40.75A3.56,3.56,0,0,1,44.3,13V38.84a.42.42,0,0,1-.42.43H29.38L27.62,41A.45.45,0,0,1,27.32,41.16Z" transform="translate(0 0)"/><path id="Fill_9" data-name="Fill 9" class="cls-1" d="M28.08,10.31a.43.43,0,0,1-.26-.09.43.43,0,0,1-.07-.59,5.42,5.42,0,1,0-8.53,0,.43.43,0,0,1-.07.59.41.41,0,0,1-.59-.07,6.22,6.22,0,0,1-1.33-3.87,6.26,6.26,0,1,1,12.51,0,6.22,6.22,0,0,1-1.33,3.87A.39.39,0,0,1,28.08,10.31Z" transform="translate(0 0)"/></g></g></svg>